<?xml version="1.0" encoding="utf-8"?>
<!-- Generator: Adobe Illustrator 16.0.0, SVG Export Plug-In . SVG Version: 6.00 Build 0)  -->
<!DOCTYPE svg PUBLIC "-//W3C//DTD SVG 1.1//EN" "http://www.w3.org/Graphics/SVG/1.1/DTD/svg11.dtd">
<svg version="1.1" id="Calque_1" xmlns="http://www.w3.org/2000/svg" xmlns:xlink="http://www.w3.org/1999/xlink" x="0px" y="0px"
	 width="841.889px" height="595.281px" viewBox="0 0 841.889 595.281" enable-background="new 0 0 841.889 595.281"
	 xml:space="preserve">
<path d="M420.945,219.063c-10.505,0-19.049,8.543-19.049,19.049s8.544,19.049,19.049,19.049c10.506,0,19.049-8.543,19.049-19.049
	S431.45,219.063,420.945,219.063z M420.945,247.636c-5.253,0-9.524-4.271-9.524-9.524s4.271-9.524,9.524-9.524
	s9.524,4.271,9.524,9.524S426.198,247.636,420.945,247.636z M420.945,200.014c10.506,0,19.049-8.544,19.049-19.049
	c0-10.506-8.543-19.049-19.049-19.049c-10.505,0-19.049,8.543-19.049,19.049C401.896,191.47,410.44,200.014,420.945,200.014z
	 M420.945,171.441c5.253,0,9.524,4.271,9.524,9.524c0,5.252-4.271,9.524-9.524,9.524s-9.524-4.272-9.524-9.524
	C411.42,175.713,415.692,171.441,420.945,171.441z M420.945,276.21c-10.505,0-19.049,8.544-19.049,19.05
	c0,10.505,8.544,19.049,19.049,19.049c10.506,0,19.049-8.544,19.049-19.049C439.993,284.754,431.45,276.21,420.945,276.21z
	 M420.945,304.784c-5.253,0-9.524-4.271-9.524-9.524s4.271-9.525,9.524-9.525s9.524,4.272,9.524,9.525
	S426.198,304.784,420.945,304.784z"/>
</svg>
