<?xml version="1.0" encoding="utf-8"?>
<!-- Generator: Adobe Illustrator 16.0.0, SVG Export Plug-In . SVG Version: 6.00 Build 0)  -->
<!DOCTYPE svg PUBLIC "-//W3C//DTD SVG 1.1//EN" "http://www.w3.org/Graphics/SVG/1.1/DTD/svg11.dtd">
<svg version="1.1"
	 id="Calque_1" xmlns:cc="http://creativecommons.org/ns#" xmlns:rdf="http://www.w3.org/1999/02/22-rdf-syntax-ns#" xmlns:svg="http://www.w3.org/2000/svg" xmlns:sodipodi="http://sodipodi.sourceforge.net/DTD/sodipodi-0.dtd" xmlns:dc="http://purl.org/dc/elements/1.1/" xmlns:inkscape="http://www.inkscape.org/namespaces/inkscape"
	 xmlns="http://www.w3.org/2000/svg" xmlns:xlink="http://www.w3.org/1999/xlink" x="0px" y="0px" width="841.889px"
	 height="595.281px" viewBox="0 0 841.889 595.281" enable-background="new 0 0 841.889 595.281" xml:space="preserve">
<g transform="translate(0,-952.36218)">
	<path d="M420.945,1004.747c-102.517,0-185.728,83.21-185.728,185.728c0,102.517,83.211,185.728,185.728,185.728
		c102.518,0,185.728-83.211,185.728-185.728C606.672,1087.957,523.462,1004.747,420.945,1004.747z M420.945,1014.271
		c97.369,0,176.203,78.833,176.203,176.203s-78.834,176.203-176.203,176.203s-176.203-78.833-176.203-176.203
		S323.575,1014.271,420.945,1014.271z M370.346,1095.081c-4.496,0.098-8.901,1.348-12.649,3.571
		c-7.498,4.448-12.725,12.776-12.947,22.77v137.659c0.224,9.993,5.454,18.295,12.947,22.77c7.492,4.475,17.383,5.073,26.192,0.295
		l119.056-69.053c7.854-4.561,13.245-13.108,13.245-22.916s-5.391-18.208-13.245-22.77c-39.181-23.76-80.023-45.623-119.056-69.053
		C379.508,1095.923,374.566,1095.027,370.346,1095.081L370.346,1095.081z M370.942,1104.456c2.607,0.048,5.251,0.886,8.334,2.381
		l118.907,68.755c5.104,2.965,8.482,8.232,8.482,14.585s-3.378,11.769-8.482,14.733c-39.575,22.227-76.269,44.447-119.057,68.904
		c-5.939,3.161-11.812,2.661-16.519-0.147c-4.707-2.812-8.132-7.957-8.334-14.734v-137.361c0.152-6.855,3.595-11.921,8.334-14.732
		c3.154-1.68,5.726-2.428,8.334-2.381V1104.456z"/>
</g>
</svg>
