<?xml version="1.0" encoding="utf-8"?>
<!-- Generator: Adobe Illustrator 16.0.0, SVG Export Plug-In . SVG Version: 6.00 Build 0)  -->
<!DOCTYPE svg PUBLIC "-//W3C//DTD SVG 1.1//EN" "http://www.w3.org/Graphics/SVG/1.1/DTD/svg11.dtd">
<svg version="1.1"
	 id="Calque_1" xmlns:cc="http://creativecommons.org/ns#" xmlns:rdf="http://www.w3.org/1999/02/22-rdf-syntax-ns#" xmlns:svg="http://www.w3.org/2000/svg" xmlns:sodipodi="http://sodipodi.sourceforge.net/DTD/sodipodi-0.dtd" xmlns:dc="http://purl.org/dc/elements/1.1/" xmlns:inkscape="http://www.inkscape.org/namespaces/inkscape"
	 xmlns="http://www.w3.org/2000/svg" xmlns:xlink="http://www.w3.org/1999/xlink" x="0px" y="0px" width="841.889px"
	 height="595.281px" viewBox="0 0 841.889 595.281" enable-background="new 0 0 841.889 595.281" xml:space="preserve">
<g transform="translate(0,-952.36218)">
	<path d="M420.796,990.46c-52.239,0-95.097,40.835-95.097,94.055c0,12.886,3.137,29.406,7.441,40.776
		c26.272,54.789,52.772,109.654,79.172,164.446c1.523,3.264,5.031,5.507,8.632,5.507s7.108-2.243,8.632-5.507
		c26.083-54.938,53.312-109.469,79.172-164.446c4.337-11.396,7.441-27.898,7.441-40.776
		C516.19,1031.266,473.035,990.46,420.796,990.46z M420.796,1009.508c42.453,0,76.345,31.901,76.345,75.006
		c0,9.181-3.205,25.49-6.251,33.633c-23.09,48.55-46.598,97.062-69.945,145.547c-22.52-48.853-47.951-96.531-69.945-145.547
		c-3.038-8.161-6.25-24.469-6.25-33.633C344.749,1041.382,378.343,1009.508,420.796,1009.508z M420.945,1033.32
		c-28.817,0-52.385,23.566-52.385,52.385s23.566,52.385,52.385,52.385s52.385-23.566,52.385-52.385S449.763,1033.32,420.945,1033.32
		z M420.945,1052.369c18.523,0,33.336,14.812,33.336,33.336c0,18.522-14.812,33.336-33.336,33.336
		c-18.522,0-33.336-14.813-33.336-33.336C387.609,1067.181,402.422,1052.369,420.945,1052.369z M244.741,1180.949
		c-5.534,0-9.407,5.234-9.524,9.525v190.49c0.001,4.987,4.538,9.524,9.524,9.524h352.406c4.986,0,9.523-4.537,9.524-9.524v-190.49
		c-0.001-4.987-4.538-9.524-9.524-9.525H492.527l-9.227,19.05h104.323v38.099h-121.14l-0.893-1.191l-9.228,19.05l92.418,115.484
		H406.509l-59.23-74.113l41.372-34.973l-8.482-17.561l-44.795,37.801l-66.076-82.596h89.292l-9.227-19.05H244.741z
		 M254.266,1211.606l127.837,159.834H254.266V1211.606z M481.663,1257.146h105.96v47.622h-67.862L481.663,1257.146z
		 M535.09,1323.817h52.533v47.623h-14.436L535.09,1323.817z"/>
</g>
</svg>
