<svg xmlns="http://www.w3.org/2000/svg" xmlns:xlink="http://www.w3.org/1999/xlink" version="1.1" x="0px" y="0px" viewBox="0 0 32 40" enable-background="new 0 0 32 32" xml:space="preserve"><g display="none"><rect x="-403" y="-101.667" display="inline" fill="#000000" width="564.667" height="232.667"/></g><g display="none"><g display="inline"><path fill="#000000" d="M17.806,13.011c1.341,0,2.433-1.103,2.433-2.458c0-1.355-1.092-2.458-2.433-2.458    c-1.341,0-2.431,1.103-2.431,2.458C15.374,11.908,16.465,13.011,17.806,13.011z M17.806,9.095c0.79,0,1.433,0.654,1.433,1.458    s-0.643,1.458-1.433,1.458c-0.789,0-1.431-0.654-1.431-1.458S17.017,9.095,17.806,9.095z"/><path fill="#000000" d="M22.184,13.812l-4.651,4.596l-5.531-6.747L4.498,21.29l0.789,0.615l6.734-8.643l7.002,8.542l0.773-0.635    l-1.627-1.985l4.012-3.965c1.108,1.099,4.461,4.425,4.609,4.574l0.711-0.703c-0.178-0.18-4.967-4.931-4.967-4.931L22.184,13.812z"/><path fill="#000000" d="M30,2.75H2c-1.1,0-2,0.9-2,2v18.507l3.126,2.838v3.155H30c1.1,0,2-0.9,2-2V4.75C32,3.65,31.1,2.75,30,2.75    z M31,27.25c0,0.551-0.449,1-1,1H4.126v-2.155v-0.443l-0.328-0.298L1,22.814V4.75c0-0.551,0.449-1,1-1h28c0.551,0,1,0.449,1,1    V27.25z"/></g></g><g display="none"><g display="inline"><ellipse cx="17.806" cy="10.553" rx="2.432" ry="2.458"/><path d="M12.031,14.063l6.605,8.058l1.547-1.268l-1.339-1.633l3.337-3.297c1.335,1.325,4.119,4.087,4.254,4.223l1.422-1.406    c-0.178-0.18-4.971-4.934-4.971-4.934l-0.703-0.697l-4.612,4.559l-5.579-6.807L4.104,20.983l1.578,1.229L12.031,14.063z"/><path d="M30,2.75H2c-1.1,0-2,0.9-2,2v18.507l3.126,2.838v3.155H30c1.1,0,2-0.9,2-2V4.75C32,3.65,31.1,2.75,30,2.75z M30,27.25    H5.126v-1.155V25.21l-0.656-0.595L2,22.371V4.75h28V27.25z"/></g></g><g display="none"><g display="inline"><g><ellipse cx="17.806" cy="10.553" rx="1.432" ry="1.458"/></g><g><g><path d="M30,2.75H2c-1.1,0-2,0.9-2,2v18.507l3.126,2.838v3.155H30c1.1,0,2-0.9,2-2V4.75C32,3.65,31.1,2.75,30,2.75z       M17.806,8.095c1.341,0,2.433,1.103,2.433,2.458c0,1.355-1.092,2.458-2.433,2.458c-1.341,0-2.431-1.103-2.431-2.458      C15.374,9.198,16.465,8.095,17.806,8.095z M26.791,19.794c-0.148-0.149-3.501-3.476-4.609-4.574l-4.012,3.965l1.627,1.985      l-0.773,0.635l-7.002-8.542l-6.734,8.643L4.498,21.29l7.504-9.629l5.531,6.747l4.651-4.596l0.352,0.348      c0,0,4.789,4.751,4.967,4.931L26.791,19.794z"/></g></g></g></g><g><g><path d="M17.806,13.011c1.341,0,2.433-1.103,2.433-2.458c0-1.355-1.092-2.458-2.433-2.458c-1.341,0-2.431,1.103-2.431,2.458    C15.374,11.908,16.465,13.011,17.806,13.011z M17.806,8.595c1.066,0,1.933,0.878,1.933,1.958s-0.867,1.958-1.933,1.958    c-1.065,0-1.931-0.878-1.931-1.958S16.741,8.595,17.806,8.595z"/><path d="M22.183,14.164l-4.669,4.615l-5.506-6.718l-7.312,9.383l0.395,0.307l6.927-8.889l7.2,8.783l0.387-0.316l-1.772-2.162    l4.351-4.3c0.864,0.857,4.629,4.592,4.786,4.751l0.355-0.352c-0.178-0.18-4.966-4.929-4.966-4.929L22.183,14.164z"/><path d="M30,2.75H2c-1.1,0-2,0.9-2,2v18.507l3.126,2.838v3.155H30c1.1,0,2-0.9,2-2V4.75C32,3.65,31.1,2.75,30,2.75z M31.5,27.25    c0,0.827-0.673,1.5-1.5,1.5H3.626v-2.655v-0.221l-0.164-0.149L0.5,23.035V4.75c0-0.827,0.673-1.5,1.5-1.5h28    c0.827,0,1.5,0.673,1.5,1.5V27.25z"/></g></g><text x="0" y="47" fill="#000000" font-size="5px" font-weight="bold" font-family="'Helvetica Neue', Helvetica, Arial-Unicode, Arial, Sans-serif">Created by AlfredoCreates.com</text><text x="0" y="52" fill="#000000" font-size="5px" font-weight="bold" font-family="'Helvetica Neue', Helvetica, Arial-Unicode, Arial, Sans-serif">from the Noun Project</text></svg>