<?xml version="1.0" encoding="utf-8"?>
<!-- Generator: Adobe Illustrator 16.0.0, SVG Export Plug-In . SVG Version: 6.00 Build 0)  -->
<!DOCTYPE svg PUBLIC "-//W3C//DTD SVG 1.1//EN" "http://www.w3.org/Graphics/SVG/1.1/DTD/svg11.dtd">
<svg version="1.1" id="Calque_1" xmlns="http://www.w3.org/2000/svg" xmlns:xlink="http://www.w3.org/1999/xlink" x="0px" y="0px"
	 width="841.889px" height="595.281px" viewBox="0 0 841.889 595.281" enable-background="new 0 0 841.889 595.281"
	 xml:space="preserve">
<path d="M448.789,43.655l3.048,28.031l1.672,15.344l14.682,4.743c7.768,2.505,15.415,5.687,22.749,9.448l13.734,7.043l12.039-9.662
	l22.04-17.691l39.402,39.397l-17.696,22.068l-9.639,12.029l7.029,13.721c3.757,7.338,6.929,14.977,9.424,22.706l4.738,14.672
	l15.33,1.682l28.063,3.071v55.719l-28.078,3.086l-15.329,1.686l-4.734,14.673c-2.49,7.729-5.657,15.358-9.419,22.678l-7.049,13.734
	l9.663,12.044l17.691,22.044l-39.397,39.398l-22.063-17.692l-12.029-9.648l-13.726,7.039c-7.334,3.758-14.977,6.929-22.706,9.425
	l-14.673,4.738l-1.681,15.329l-3.071,28.064h-55.728l-3.081-28.078l-1.687-15.33l-14.677-4.733
	c-7.715-2.486-15.368-5.667-22.735-9.448l-13.753-7.048l-12.039,9.686l-21.982,17.683l-39.369-39.365l17.691-22.001l9.677-12.039
	l-7.048-13.749c-3.791-7.381-6.973-15.049-9.468-22.792l-4.738-14.711l-15.363-1.661l-28.016-3.039v-55.67l28.03-3.048l15.349-1.672
	l4.738-14.687c2.505-7.758,5.691-15.425,9.473-22.802l7.053-13.754l-9.687-12.038l-17.683-21.983l39.365-39.364l21.996,17.683
	l12.034,9.677l13.749-7.044c7.367-3.776,15.039-6.962,22.812-9.472l14.691-4.743l1.667-15.349l3.038-28.021h55.675 M420.945,355.978
	c64.99,0,117.865-52.876,117.865-117.866s-52.875-117.865-117.865-117.865s-117.865,52.875-117.865,117.865
	S355.954,355.978,420.945,355.978 M470.148,19.844h-98.406l-5.339,49.266c-9.134,2.947-17.935,6.624-26.358,10.943l-38.646-31.069
	l-69.586,69.577l31.078,38.631c-4.319,8.425-8.001,17.221-10.948,26.354l-49.266,5.362v98.406l49.266,5.334
	c2.942,9.139,6.624,17.939,10.943,26.359l-31.069,38.65l69.582,69.581l38.631-31.078c8.405,4.31,17.183,7.986,26.297,10.925
	l5.415,49.294h98.406l5.396-49.285c9.097-2.938,17.858-6.601,26.245-10.896l38.708,31.045l69.581-69.581l-31.055-38.693
	c4.3-8.382,7.962-17.145,10.896-26.24l49.294-5.415v-98.406l-49.284-5.396c-2.938-9.097-6.601-17.858-10.892-26.24l31.041-38.712
	l-69.581-69.582l-38.688,31.055c-8.406-4.31-17.183-7.977-26.298-10.92L470.148,19.844L470.148,19.844z M420.945,332.167
	c-51.941,0-94.054-42.108-94.054-94.055s42.112-94.055,94.054-94.055s94.055,42.108,94.055,94.055S472.886,332.167,420.945,332.167
	L420.945,332.167z"/>
</svg>
