<?xml version="1.0" encoding="utf-8"?>
<!-- Generator: Adobe Illustrator 16.0.0, SVG Export Plug-In . SVG Version: 6.00 Build 0)  -->
<!DOCTYPE svg PUBLIC "-//W3C//DTD SVG 1.1//EN" "http://www.w3.org/Graphics/SVG/1.1/DTD/svg11.dtd">
<svg version="1.1" id="Calque_1" xmlns="http://www.w3.org/2000/svg" xmlns:xlink="http://www.w3.org/1999/xlink" x="0px" y="0px"
	 width="841.889px" height="595.281px" viewBox="0 0 841.889 595.281" enable-background="new 0 0 841.889 595.281"
	 xml:space="preserve">
<path d="M584.251,103.479H257.638c-23.635,0-42.86,19.225-42.86,42.859V329.89c0,23.635,19.226,42.86,42.86,42.86h326.613
	c23.635,0,42.86-19.226,42.86-42.86V146.339C627.112,122.704,607.886,103.479,584.251,103.479z M496.75,228.892l109.988-90.059
	c0.791,2.371,1.324,4.862,1.324,7.5v183.552c0,2.305-0.434,4.486-1.048,6.601L496.75,228.892z M584.251,122.528
	c3.472,0,6.753,0.785,9.734,2.128L420.945,266.343L247.904,124.656c2.981-1.343,6.258-2.128,9.734-2.128H584.251z M234.874,336.486
	c-0.614-2.109-1.048-4.291-1.048-6.601V146.339c0-2.638,0.534-5.129,1.324-7.5l109.989,90.059L234.874,336.486z M257.638,353.697
	c-3.791,0-7.324-0.972-10.51-2.553l112.846-110.108l60.971,49.928l60.971-49.923l112.847,110.108
	c-3.187,1.581-6.72,2.553-10.511,2.553H257.638V353.697z"/>
</svg>
