<?xml version="1.0" encoding="utf-8"?>
<!-- Generator: Adobe Illustrator 16.0.0, SVG Export Plug-In . SVG Version: 6.00 Build 0)  -->
<!DOCTYPE svg PUBLIC "-//W3C//DTD SVG 1.1//EN" "http://www.w3.org/Graphics/SVG/1.1/DTD/svg11.dtd">
<svg version="1.1"
	 id="Calque_1" xmlns:cc="http://creativecommons.org/ns#" xmlns:rdf="http://www.w3.org/1999/02/22-rdf-syntax-ns#" xmlns:svg="http://www.w3.org/2000/svg" xmlns:sodipodi="http://sodipodi.sourceforge.net/DTD/sodipodi-0.dtd" xmlns:dc="http://purl.org/dc/elements/1.1/" xmlns:inkscape="http://www.inkscape.org/namespaces/inkscape"
	 xmlns="http://www.w3.org/2000/svg" xmlns:xlink="http://www.w3.org/1999/xlink" x="0px" y="0px" width="841.889px"
	 height="595.281px" viewBox="0 0 841.889 595.281" enable-background="new 0 0 841.889 595.281" xml:space="preserve">
<g transform="translate(0,-952.36218)">
	<path d="M421.837,995.246c1.959,0.167,3.859,0.959,5.357,2.232l200.015,171.44c3.779,3.272,4.24,9.688,0.968,13.468
		s-9.689,4.24-13.469,0.968l-193.764-166.083l-193.764,166.083c-3.779,3.273-10.195,2.812-13.469-0.967
		c-3.272-3.78-2.812-10.196,0.968-13.469l77.685-66.522V995.544h38.098v74.112l84.232-72.178
		C416.644,995.814,419.287,994.988,421.837,995.246L421.837,995.246z M420.945,1033.343l152.392,128.581v223.825H268.553v-223.826
		L420.945,1033.343z M497.141,1185.735h-66.672v66.672h66.672V1185.735z M411.42,1185.735h-66.671v66.672h66.671V1185.735z
		 M497.141,1271.456h-66.672v66.672h66.672V1271.456z M411.42,1271.456h-66.671v66.672h66.671V1271.456z"/>
</g>
</svg>
