<?xml version="1.0" encoding="utf-8"?>
<!-- Generator: Adobe Illustrator 16.0.0, SVG Export Plug-In . SVG Version: 6.00 Build 0)  -->
<!DOCTYPE svg PUBLIC "-//W3C//DTD SVG 1.1//EN" "http://www.w3.org/Graphics/SVG/1.1/DTD/svg11.dtd">
<svg version="1.1" id="Calque_1" xmlns="http://www.w3.org/2000/svg" xmlns:xlink="http://www.w3.org/1999/xlink" x="0px" y="0px"
	 width="841.889px" height="595.281px" viewBox="0 0 841.889 595.281" enable-background="new 0 0 841.889 595.281"
	 xml:space="preserve">
<path d="M373.323,0h-171.44c-10.521,0-19.05,8.529-19.05,19.049V190.49c0,10.52,8.529,19.049,19.05,19.049h171.44
	c10.52,0,19.049-8.529,19.049-19.049V19.049C392.371,8.529,383.842,0,373.323,0z M373.323,190.49h-171.44V19.049h171.44V190.49z
	 M640.008,0H468.567c-10.52,0-19.049,8.529-19.049,19.049V190.49c0,10.52,8.529,19.049,19.049,19.049h171.441
	c10.52,0,19.049-8.529,19.049-19.049V19.049C659.057,8.529,650.528,0,640.008,0z M640.008,190.49H468.567V19.049h171.441V190.49z
	 M373.323,266.685h-171.44c-10.521,0-19.05,8.529-19.05,19.049v171.441c0,10.52,8.529,19.049,19.05,19.049h171.44
	c10.52,0,19.049-8.529,19.049-19.049V285.734C392.371,275.215,383.842,266.685,373.323,266.685z M373.323,457.176h-171.44V285.734
	h171.44V457.176z M640.008,266.685H468.567c-10.52,0-19.049,8.529-19.049,19.049v171.441c0,10.52,8.529,19.049,19.049,19.049
	h171.441c10.52,0,19.049-8.529,19.049-19.049V285.734C659.057,275.215,650.528,266.685,640.008,266.685z M640.008,457.176H468.567
	V285.734h171.441V457.176z"/>
</svg>
