<svg xmlns="http://www.w3.org/2000/svg" xmlns:xlink="http://www.w3.org/1999/xlink" viewBox="0 0 24 30" version="1.1" x="0px" y="0px"><title>26 - Conversation (communication, dialogue, discussion)</title><desc>Created with Sketch.</desc><g stroke="none" stroke-width="1" fill="none" fill-rule="evenodd" stroke-linecap="round"><g transform="translate(-291.000000, -636.000000)" stroke="#000000" stroke-width="2"><g transform="translate(292.000000, 637.000000)"><path d="M21.8065,17.1017 C21.0025,15.5817 18.0365,13.8437 18.0365,13.8437 C17.3655,13.4617 16.5565,13.4187 16.1735,14.1007 C16.1735,14.1007 15.2095,15.2567 14.9645,15.4227 C13.8445,16.1807 12.8085,16.1517 11.7615,15.1047 L9.3285,12.6717 L6.8955,10.2387 C5.8485,9.1917 5.8195,8.1557 6.5775,7.0357 C6.7435,6.7907 7.8995,5.8267 7.8995,5.8267 C8.5815,5.4437 8.5385,4.6347 8.1565,3.9637 C8.1565,3.9637 6.4185,0.9977 4.8985,0.1937 C4.2515,-0.1483 3.4585,-0.0293 2.9405,0.4877 L1.8665,1.5627 C-1.5415,4.9707 0.1365,8.8187 3.5445,12.2267 L6.6585,15.3417 L9.7735,18.4557 C13.1815,21.8637 17.0295,23.5417 20.4375,20.1337 L21.5115,19.0587 C22.0295,18.5417 22.1485,17.7477 21.8065,17.1017 L21.8065,17.1017 Z"/><path d="M17,2 C17,3.658 18.342,5 20,5"/><path d="M13,2 C13,5.869 16.131,9 20,9"/></g></g></g><text x="0" y="39" fill="#000000" font-size="5px" font-weight="bold" font-family="'Helvetica Neue', Helvetica, Arial-Unicode, Arial, Sans-serif">Created by Ben Davis</text><text x="0" y="44" fill="#000000" font-size="5px" font-weight="bold" font-family="'Helvetica Neue', Helvetica, Arial-Unicode, Arial, Sans-serif">from the Noun Project</text></svg>