<?xml version="1.0" encoding="utf-8"?>
<!-- Generator: Adobe Illustrator 16.0.0, SVG Export Plug-In . SVG Version: 6.00 Build 0)  -->
<!DOCTYPE svg PUBLIC "-//W3C//DTD SVG 1.1//EN" "http://www.w3.org/Graphics/SVG/1.1/DTD/svg11.dtd">
<svg version="1.1"
	 id="Calque_1" xmlns:cc="http://creativecommons.org/ns#" xmlns:rdf="http://www.w3.org/1999/02/22-rdf-syntax-ns#" xmlns:svg="http://www.w3.org/2000/svg" xmlns:sodipodi="http://sodipodi.sourceforge.net/DTD/sodipodi-0.dtd" xmlns:dc="http://purl.org/dc/elements/1.1/" xmlns:inkscape="http://www.inkscape.org/namespaces/inkscape"
	 xmlns="http://www.w3.org/2000/svg" xmlns:xlink="http://www.w3.org/1999/xlink" x="0px" y="0px" width="841.889px"
	 height="595.281px" viewBox="0 0 841.889 595.281" enable-background="new 0 0 841.889 595.281" xml:space="preserve">
<g>
	<path d="M579.327,109.866c-0.408-1.216-1.092-2.32-1.999-3.227l-20.617-20.615c-3.241-3.241-8.492-3.241-11.732,0
		c-3.241,3.24-3.241,8.494,0,11.732l19.235,19.236l37.202,110.869c-14.087-9.21-30.892-14.587-48.938-14.587
		c-37.788,0-70.163,23.501-83.349,56.646c-10.547-15.336-28.208-25.417-48.187-25.417s-37.639,10.082-48.186,25.417
		c-13.182-33.145-45.56-56.646-83.346-56.646c-18.048,0-34.854,5.377-48.938,14.587l37.201-110.869l19.234-19.236
		c3.24-3.239,3.24-8.493,0-11.733c-3.239-3.238-8.494-3.24-11.733,0.001l-20.613,20.615c-0.907,0.905-1.592,2.011-1.999,3.227
		l-48.506,144.559c-9.048,14-14.324,30.654-14.324,48.528c0,49.448,40.229,89.678,89.678,89.678c49.449,0,89.68-40.229,89.68-89.678
		c0-23.079,18.775-41.855,41.853-41.855c23.08,0,41.856,18.776,41.856,41.855c0,49.448,40.229,89.678,89.678,89.678
		c49.446,0,89.679-40.229,89.679-89.678c0-17.872-5.277-34.526-14.323-48.525L579.327,109.866z M289.411,376.037
		c-40.299,0-73.083-32.786-73.083-73.084c0-40.299,32.785-73.083,73.083-73.083c40.299,0,73.085,32.784,73.085,73.083
		S329.71,376.037,289.411,376.037z M552.479,376.037c-40.301,0-73.084-32.786-73.084-73.084c0-40.299,32.783-73.083,73.084-73.083
		c40.297,0,73.083,32.784,73.083,73.083S592.776,376.037,552.479,376.037z"/>
	<path d="M556.267,282.308c-3.241-3.241-8.495-3.241-11.732,0l-33.873,33.874c-3.24,3.239-3.24,8.494,0,11.733
		c1.621,1.62,3.743,2.431,5.866,2.431s4.25-0.811,5.866-2.431l33.873-33.875C559.508,290.802,559.508,285.548,556.267,282.308z"/>
	<path d="M569.413,277.462c2.123,0,4.245-0.811,5.866-2.432l5.854-5.854c3.241-3.238,3.241-8.493,0-11.732
		c-3.241-3.241-8.496-3.241-11.736,0l-5.854,5.854c-3.237,3.239-3.237,8.494,0,11.732
		C565.163,276.65,567.287,277.462,569.413,277.462z"/>
	<path d="M582.838,305.115l-24.507,24.503c-3.236,3.24-3.236,8.495,0,11.733c1.621,1.621,3.744,2.432,5.87,2.432
		c2.122,0,4.246-0.811,5.866-2.43l24.503-24.503c3.24-3.24,3.24-8.495,0-11.733C591.333,301.877,586.078,301.877,582.838,305.115z"
		/>
	<path d="M294.834,282.308c-3.241-3.241-8.493-3.241-11.734,0l-33.874,33.874c-3.24,3.239-3.24,8.494,0,11.733
		c1.621,1.62,3.744,2.431,5.867,2.431c2.124,0,4.247-0.811,5.867-2.431l33.874-33.875
		C298.074,290.802,298.074,285.548,294.834,282.308z"/>
	<path d="M307.977,277.462c2.124,0,4.247-0.811,5.867-2.432l5.854-5.854c3.24-3.238,3.24-8.493,0-11.732
		c-3.241-3.241-8.494-3.241-11.734,0l-5.854,5.854c-3.24,3.239-3.24,8.494,0,11.732C303.73,276.65,305.854,277.462,307.977,277.462z
		"/>
	<path d="M321.402,305.115l-24.504,24.503c-3.24,3.24-3.24,8.495,0,11.733c1.62,1.621,3.743,2.432,5.866,2.432
		s4.247-0.811,5.867-2.43l24.505-24.503c3.24-3.24,3.24-8.495,0-11.733C329.898,301.877,324.645,301.877,321.402,305.115z"/>
</g>
</svg>
