<?xml version="1.0" encoding="utf-8"?>
<!-- Generator: Adobe Illustrator 16.0.0, SVG Export Plug-In . SVG Version: 6.00 Build 0)  -->
<!DOCTYPE svg PUBLIC "-//W3C//DTD SVG 1.1//EN" "http://www.w3.org/Graphics/SVG/1.1/DTD/svg11.dtd">
<svg version="1.1" id="Calque_1" xmlns="http://www.w3.org/2000/svg" xmlns:xlink="http://www.w3.org/1999/xlink" x="0px" y="0px"
	 width="841.889px" height="595.281px" viewBox="0 0 841.889 595.281" enable-background="new 0 0 841.889 595.281"
	 xml:space="preserve">
<g>
	<path d="M568.574,42.384H273.316c-36.67,0-66.672,30.003-66.672,66.672v164.773c0,36.67,30.002,66.672,66.672,66.672h26.668v53.337
		v2.381c0,15.716,10.001,30.002,24.764,35.241c3.81,1.429,8.096,1.904,12.382,1.904c10.953,0,21.906-4.762,29.05-13.811
		l63.338-79.053h139.058c36.669,0,66.195-30.002,66.195-66.672V109.055C635.245,72.386,605.243,42.384,568.574,42.384z
		 M597.623,273.829c0,16.191-13.334,29.05-29.049,29.05H411.42l-74.291,93.34v-92.863h-63.813c-16.192,0-29.05-13.335-29.05-29.05
		v-165.25c0-16.191,13.334-29.05,29.05-29.05h295.259c16.191,0,29.049,13.334,29.049,29.05V273.829z"/>
	<path d="M290.459,182.394h186.203c10.478,0,18.573-8.572,18.573-18.573c0-10.477-8.572-18.572-18.573-18.572H290.459
		c-10.477,0-18.572,8.571-18.572,18.572S280.458,182.394,290.459,182.394z"/>
	<path d="M551.43,200.967H290.459c-10.477,0-18.572,8.572-18.572,18.573c0,10,8.571,18.572,18.572,18.572h260.494
		c10.478,0,18.573-8.572,18.573-18.572C569.527,209.539,561.431,200.967,551.43,200.967z"/>
</g>
</svg>
