<?xml version="1.0" encoding="utf-8"?>
<!-- Generator: Adobe Illustrator 16.0.0, SVG Export Plug-In . SVG Version: 6.00 Build 0)  -->
<!DOCTYPE svg PUBLIC "-//W3C//DTD SVG 1.1//EN" "http://www.w3.org/Graphics/SVG/1.1/DTD/svg11.dtd">
<svg version="1.1" id="Calque_1" xmlns="http://www.w3.org/2000/svg" xmlns:xlink="http://www.w3.org/1999/xlink" x="0px" y="0px"
	 width="841.889px" height="595.281px" viewBox="0 0 841.889 595.281" enable-background="new 0 0 841.889 595.281"
	 xml:space="preserve">
<path d="M449.518,166.678c-50.003,0-90.482,40.479-90.482,90.482c0,50.004,40.479,90.483,90.482,90.483
	c50.004,0,90.482-40.479,90.482-90.483C540,207.158,499.522,166.678,449.518,166.678z M449.518,338.12
	c-44.765,0-80.958-36.193-80.958-80.959c0-44.765,36.193-80.958,80.958-80.958c44.766,0,80.958,36.193,80.958,80.958
	C530.476,301.927,494.283,338.12,449.518,338.12z M449.518,183.346c-40.479,0-73.814,33.336-73.814,73.814
	c0,40.479,33.336,73.815,73.814,73.815c40.479,0,73.814-33.336,73.814-73.815C523.332,216.682,489.997,183.346,449.518,183.346z
	 M449.518,326.214c-38.098,0-69.052-30.954-69.052-69.053c0-38.098,30.954-69.053,69.052-69.053s69.053,30.955,69.053,69.053
	C518.571,295.26,487.615,326.214,449.518,326.214z M301.889,123.818c0-2.857-1.905-4.762-4.763-4.762h-38.098
	c-2.857,0-4.763,1.904-4.763,4.762v10.001c-10.953,2.381-19.049,11.905-19.049,23.335v200.015c0,13.334,10.478,23.811,23.812,23.811
	h52.385V133.343h-9.524V123.818z M263.791,128.581h28.573v4.762h-28.573V128.581z M301.889,371.455h-42.86
	c-8.096,0-14.287-6.19-14.287-14.286V157.154c0-8.096,6.191-14.287,14.287-14.287h38.098h4.763V371.455z M420.945,138.105h57.146
	c2.857,0,4.763-1.905,4.763-4.763v-14.286c0-2.857-1.905-4.763-4.763-4.763h-57.146c-2.857,0-4.762,1.905-4.762,4.763v14.286
	C416.183,136.2,418.087,138.105,420.945,138.105z M425.707,123.818h47.622v4.763h-47.622V123.818z M563.812,152.391
	c-10.477,0-19.049,8.572-19.049,19.05c0,10.477,8.572,19.049,19.049,19.049s19.049-8.572,19.049-19.049
	C582.861,160.964,574.288,152.391,563.812,152.391z M563.812,180.966c-5.238,0-9.524-4.286-9.524-9.524
	c0-5.239,4.286-9.524,9.524-9.524s9.524,4.285,9.524,9.524C573.336,176.679,569.05,180.966,563.812,180.966z M582.861,133.343
	h-59.052l-12.382-24.764c-4.286-8.096-12.382-13.334-21.43-13.334h-80.958c-9.049,0-17.145,5.238-21.431,13.334l-12.382,24.764
	h-54.289v247.637h261.923c13.335,0,23.812-10.477,23.812-23.811V157.154C606.672,143.82,596.196,133.343,582.861,133.343z
	 M597.148,357.169c0,8.096-6.191,14.286-14.287,14.286H330.462V142.867h50.479l15.239-30.002c2.381-4.762,7.144-8.096,12.858-8.096
	h81.434c5.239,0,10.478,2.857,12.858,8.096l15.239,30.002h64.29c8.096,0,14.287,6.191,14.287,14.287V357.169z"/>
</svg>
