<?xml version="1.0" encoding="utf-8"?>
<!-- Generator: Adobe Illustrator 16.0.0, SVG Export Plug-In . SVG Version: 6.00 Build 0)  -->
<!DOCTYPE svg PUBLIC "-//W3C//DTD SVG 1.1//EN" "http://www.w3.org/Graphics/SVG/1.1/DTD/svg11.dtd">
<svg version="1.1"
	 id="Calque_1" xmlns:cc="http://creativecommons.org/ns#" xmlns:rdf="http://www.w3.org/1999/02/22-rdf-syntax-ns#" xmlns:svg="http://www.w3.org/2000/svg" xmlns:sodipodi="http://sodipodi.sourceforge.net/DTD/sodipodi-0.dtd" xmlns:dc="http://purl.org/dc/elements/1.1/" xmlns:inkscape="http://www.inkscape.org/namespaces/inkscape"
	 xmlns="http://www.w3.org/2000/svg" xmlns:xlink="http://www.w3.org/1999/xlink" x="0px" y="0px" width="841.889px"
	 height="595.281px" viewBox="0 0 841.889 595.281" enable-background="new 0 0 841.889 595.281" xml:space="preserve">
<g transform="translate(0,-952.36218)">
	<path d="M419.75,995.086c2.086,0.076,4.218,0.3,6.25,0.744c16.259,3.548,28.859,18.306,29.764,36.759
		c2.071,54.606,9.139,86.965,43.009,135.724c4.232-6.742,11.643-11.311,20.091-11.311h85.721c13.026,0,23.812,10.785,23.812,23.812
		v171.441c0,13.026-10.785,23.811-23.812,23.811h-85.721c-8.213,0-15.503-4.281-19.793-10.715
		c-4.953,3.991-9.536,7.574-14.286,10.418c-7.853,4.697-16.729,7.522-28.872,8.779c-24.283,2.516-64.134,0.656-156.111,1.043
		c-2.16-0.049-4.299-0.842-5.953-2.232c-18.51-15.1-26.549-29.561-30.211-45.837c-1.801-0.555-3.43-1.658-4.612-3.126
		c-13.843-17.3-18.852-37.26-15.627-54.467c-1.326-0.615-2.507-1.539-3.423-2.68c-16.168-18.967-19.435-43.256-13.692-61.611
		c-9.877-11.683-13.96-25.388-12.501-38.098c2.327-16.09,14.014-32.259,28.873-34.824h122.627
		c-7.331-48.234-2.472-92.563,13.84-121.288c8.808-15.507,21.649-24.186,34.378-26.044c2.122-0.31,4.164-0.376,6.251-0.295V995.086z
		 M395.641,1030.802c-13.929,24.529-19.709,70.406-10.269,119.651c1.048,5.493-3.783,11.321-9.376,11.311H245.333
		c-7.151,3.668-11.745,9.982-12.65,17.858c-0.875,7.628,2.228,16.597,9.971,25.002h52.385c5.032,0,9.66,4.492,9.66,9.524
		s-4.628,9.596-9.66,9.524h-51.193c-2.86,10.52-0.661,24.521,8.78,38.099h42.413c5.032,0,9.66,4.492,9.66,9.523
		c0,5.033-4.628,9.596-9.66,9.525h-32.145c-2.86,10.52-0.661,24.52,8.78,38.098h23.364c5.032,0,9.66,4.492,9.66,9.524
		s-4.628,9.597-9.66,9.524h-11.905c2.936,10.189,8.309,18.004,20.687,28.574c88.52-0.305,129.563,1.092,150.159-1.043
		c10.5-1.087,15.431-2.63,20.983-5.952c5.003-2.993,11.129-8.273,20.091-15.478v-148.522
		c-44.256-56.286-56.148-103.609-58.338-162.214C430.342,1004.15,404.623,1012.199,395.641,1030.802z M604.584,1176.05h-85.721
		c-2.803,0-4.762,1.959-4.762,4.763v171.441c0,2.803,1.959,4.762,4.762,4.762h85.721c2.803,0,4.762-1.959,4.762-4.762v-171.441
		C609.346,1178.01,607.387,1176.051,604.584,1176.05L604.584,1176.05z"/>
</g>
</svg>
