<?xml version="1.0" encoding="utf-8"?>
<!-- Generator: Adobe Illustrator 16.0.0, SVG Export Plug-In . SVG Version: 6.00 Build 0)  -->
<!DOCTYPE svg PUBLIC "-//W3C//DTD SVG 1.1//EN" "http://www.w3.org/Graphics/SVG/1.1/DTD/svg11.dtd">
<svg version="1.1"
	 id="Calque_1" xmlns:cc="http://creativecommons.org/ns#" xmlns:rdf="http://www.w3.org/1999/02/22-rdf-syntax-ns#" xmlns:svg="http://www.w3.org/2000/svg" xmlns:sodipodi="http://sodipodi.sourceforge.net/DTD/sodipodi-0.dtd" xmlns:dc="http://purl.org/dc/elements/1.1/" xmlns:inkscape="http://www.inkscape.org/namespaces/inkscape"
	 xmlns="http://www.w3.org/2000/svg" xmlns:xlink="http://www.w3.org/1999/xlink" x="0px" y="0px" width="841.889px"
	 height="595.281px" viewBox="0 0 841.889 595.281" enable-background="new 0 0 841.889 595.281" xml:space="preserve">
<g transform="translate(0,-952.36218)">
	<path d="M420.052,1399.924c-6.412-0.398-11.77-5.025-13.097-11.311l-30.954-150.457h-55.063
		c-7.89-0.001-14.286-6.396-14.287-14.286v-57.147c0.001-7.89,6.397-14.285,14.287-14.286h16.966l17.858-85.721h-11.013
		c-7.891-0.001-14.286-6.396-14.287-14.286v-57.147c0.001-7.89,6.396-14.286,14.287-14.287h152.392
		c7.89,0.001,14.285,6.397,14.286,14.287v57.147c-0.001,7.89-6.396,14.285-14.286,14.286h-11.013l17.858,85.721h16.965
		c7.891,0.001,14.286,6.396,14.287,14.286v57.147c-0.001,7.89-6.396,14.285-14.287,14.286h-55.063l-30.954,150.457
		C433.469,1395.556,427.132,1400.372,420.052,1399.924z M420.945,1314.799l15.774-76.643H405.17L420.945,1314.799z
		 M335.225,1209.584h50.896h69.201h51.343v-28.573h-171.44V1209.584z M367.072,1152.437h107.746l-17.858-85.721H384.93
		L367.072,1152.437z M359.035,1038.143h123.818v-28.573H359.035V1038.143z"/>
</g>
</svg>
