<?xml version="1.0" encoding="utf-8"?>
<!-- Generator: Adobe Illustrator 16.0.0, SVG Export Plug-In . SVG Version: 6.00 Build 0)  -->
<!DOCTYPE svg PUBLIC "-//W3C//DTD SVG 1.1//EN" "http://www.w3.org/Graphics/SVG/1.1/DTD/svg11.dtd">
<svg version="1.1"
	 id="Calque_1" xmlns:cc="http://creativecommons.org/ns#" xmlns:rdf="http://www.w3.org/1999/02/22-rdf-syntax-ns#" xmlns:svg="http://www.w3.org/2000/svg" xmlns:sodipodi="http://sodipodi.sourceforge.net/DTD/sodipodi-0.dtd" xmlns:dc="http://purl.org/dc/elements/1.1/" xmlns:inkscape="http://www.inkscape.org/namespaces/inkscape"
	 xmlns="http://www.w3.org/2000/svg" xmlns:xlink="http://www.w3.org/1999/xlink" x="0px" y="0px" width="841.889px"
	 height="595.281px" viewBox="0 0 841.889 595.281" enable-background="new 0 0 841.889 595.281" xml:space="preserve">
<g transform="translate(0,-952.36218)">
	<path d="M420.946,1409.538c52.601,0,95.244-42.645,95.244-95.244v-276.211c0-36.771-29.9-66.672-66.671-66.672
		c-36.771,0-66.672,29.9-66.672,66.672v276.211c0,20.94,17.157,38.098,38.099,38.098s38.098-17.157,38.098-38.098v-266.687
		c0.074-5.261-4.13-9.585-9.39-9.659c-5.261-0.074-9.585,4.129-9.659,9.39c-0.002,0.09-0.002,0.18,0,0.27v266.687
		c0,10.717-8.331,19.049-19.049,19.049s-19.049-8.332-19.049-19.049v-276.211c0-26.548,21.074-47.623,47.622-47.623
		c26.547,0,47.622,21.075,47.622,47.623v276.211c0,42.377-33.818,76.195-76.195,76.195c-42.378,0-76.196-33.818-76.196-76.195
		v-266.687c0.074-5.261-4.13-9.585-9.39-9.659c-5.261-0.074-9.585,4.129-9.659,9.39c-0.001,0.09-0.001,0.18,0,0.27v266.687
		C325.7,1366.893,368.344,1409.538,420.946,1409.538z"/>
</g>
</svg>
