<?xml version="1.0" encoding="utf-8"?>
<!-- Generator: Adobe Illustrator 16.0.0, SVG Export Plug-In . SVG Version: 6.00 Build 0)  -->
<!DOCTYPE svg PUBLIC "-//W3C//DTD SVG 1.1//EN" "http://www.w3.org/Graphics/SVG/1.1/DTD/svg11.dtd">
<svg version="1.1" id="Calque_1" xmlns="http://www.w3.org/2000/svg" xmlns:xlink="http://www.w3.org/1999/xlink" x="0px" y="0px"
	 width="841.889px" height="595.281px" viewBox="0 0 841.889 595.281" enable-background="new 0 0 841.889 595.281"
	 xml:space="preserve">
<g>
	<path d="M600.224,457.866c-10.815,0-20.978-4.215-28.626-11.858l-60.608-60.608c-8.43-8.425-12.658-20.13-11.706-31.912
		l-30.893-30.897c-4.948-4.948-7.672-11.524-7.672-18.525c0-5.152,1.48-10.077,4.238-14.291
		c-29.121,27.226-66.896,42.155-106.965,42.155c-41.879,0-81.253-16.311-110.855-45.923c-29.621-29.616-45.932-68.99-45.932-110.864
		c0-41.875,16.311-81.249,45.927-110.86c29.612-29.612,68.977-45.923,110.852-45.923c41.874,0,81.248,16.311,110.859,45.933
		c29.616,29.606,45.927,68.971,45.927,110.851c0.005,40.064-14.925,77.839-42.155,106.969c4.21-2.757,9.139-4.238,14.292-4.238
		c7,0,13.577,2.725,18.525,7.672l30.901,30.894c11.911-0.938,23.502,3.29,31.907,11.705l60.614,60.609
		c15.777,15.782,15.777,41.465,0,57.247C621.206,453.651,611.039,457.866,600.224,457.866z M486.906,292.164
		c-3.177,0-6.167,1.238-8.41,3.48c-2.258,2.253-3.491,5.244-3.491,8.42c0,3.182,1.238,6.172,3.486,8.425l36.007,36.007l-0.652,3.672
		c-1.5,8.448,1.21,17.097,7.244,23.136l60.613,60.608c4.948,4.948,11.529,7.672,18.525,7.672s13.577-2.724,18.525-7.672
		c10.21-10.215,10.21-26.835,0-37.045l-60.614-60.619c-6.024-6.028-14.71-8.733-23.13-7.243l-3.672,0.652l-36.012-36.008
		C493.073,293.397,490.087,292.164,486.906,292.164z M357.984,32.645c-38.056,0-73.839,14.82-100.75,41.736
		c-26.917,26.916-41.741,62.699-41.741,100.76c0,38.06,14.819,73.843,41.741,100.759c26.906,26.912,62.689,41.737,100.754,41.737
		c38.065,0,73.849-14.82,100.755-41.737c26.916-26.916,41.741-62.699,41.736-100.759c0-38.061-14.82-73.844-41.741-100.75
		C431.822,47.474,396.043,32.645,357.984,32.645z M357.988,293.826c-31.702,0-61.509-12.344-83.92-34.76
		c-22.416-22.426-34.765-52.232-34.765-83.925c0-31.702,12.349-61.51,34.765-83.926c22.411-22.415,52.218-34.759,83.916-34.759
		c31.692,0,61.494,12.348,83.92,34.769c22.415,22.416,34.764,52.218,34.764,83.916c0.005,31.697-12.339,61.504-34.759,83.925
		C419.497,281.482,389.695,293.826,357.988,293.826z M357.984,70.743c-27.884,0-54.095,10.858-73.815,30.574
		c-19.721,19.72-30.578,45.937-30.578,73.824c0,27.878,10.857,54.094,30.578,73.824c19.716,19.716,45.937,30.573,73.819,30.573
		c27.884,0,54.104-10.857,73.819-30.573c19.721-19.721,30.579-45.937,30.574-73.824c0-27.879-10.858-54.095-30.579-73.815
		C412.077,81.606,385.862,70.743,357.984,70.743z"/>
</g>
</svg>
