<?xml version="1.0" encoding="utf-8"?>
<!-- Generator: Adobe Illustrator 16.0.0, SVG Export Plug-In . SVG Version: 6.00 Build 0)  -->
<!DOCTYPE svg PUBLIC "-//W3C//DTD SVG 1.1//EN" "http://www.w3.org/Graphics/SVG/1.1/DTD/svg11.dtd">
<svg version="1.1" id="Calque_1" xmlns="http://www.w3.org/2000/svg" xmlns:xlink="http://www.w3.org/1999/xlink" x="0px" y="0px"
	 width="841.889px" height="595.281px" viewBox="0 0 841.889 595.281" enable-background="new 0 0 841.889 595.281"
	 xml:space="preserve">
<g>
	<path d="M636.354,400.198L248.3,448.77c-13.199,1.584-25.342-7.919-26.926-21.118l-39.069-312.556l33.262-4.224l-2.112-14.783
		l402.31-50.685l41.181,327.338C658.529,386.47,649.026,398.086,636.354,400.198 M268.363,431.347l365.88-45.933
		c5.279-0.528,8.976-5.28,8.447-10.56L603.62,62.3l-373.799,46.989l39.069,312.556C269.419,425.011,269.419,428.179,268.363,431.347
		 M198.144,128.296l37.485,297.772c0.528,5.279,5.279,8.975,10.56,8.447c5.279-0.528,8.976-5.279,8.447-10.56l-37.485-298.3
		L198.144,128.296z"/>
	<polygon points="374.484,322.587 286.314,333.674 276.282,246.559 364.452,235.472 	"/>
	
		<rect x="426.871" y="185.775" transform="matrix(-0.1256 -0.9921 0.9921 -0.1256 257.1843 685.8609)" width="7.92" height="87.644"/>
	
		<rect x="428.426" y="200.579" transform="matrix(-0.1258 -0.9921 0.9921 -0.1258 244.3043 704.092)" width="7.92" height="87.645"/>
	
		<rect x="430.438" y="214.798" transform="matrix(-0.1258 -0.9921 0.9921 -0.1258 232.4631 722.0947)" width="7.92" height="87.645"/>
	
		<rect x="432.514" y="229.541" transform="matrix(-0.1258 -0.9921 0.9921 -0.1258 220.1743 740.7518)" width="7.92" height="87.645"/>
	
		<rect x="329.774" y="315.413" transform="matrix(-0.1256 -0.9921 0.9921 -0.1256 19.2767 735.4606)" width="7.92" height="87.644"/>
	<rect x="331.263" y="329.695" transform="matrix(-0.1256 -0.9921 0.9921 -0.1256 6.785 753.0136)" width="7.92" height="87.644"/>
	
		<rect x="333.341" y="344.437" transform="matrix(-0.1256 -0.9921 0.9921 -0.1256 -5.5011 771.6697)" width="7.92" height="87.644"/>
	
		<rect x="334.827" y="358.723" transform="matrix(-0.1256 -0.9921 0.9921 -0.1256 -18.0021 789.2244)" width="7.92" height="87.644"/>
	
		<rect x="434.001" y="243.827" transform="matrix(-0.1258 -0.9921 0.9921 -0.1258 207.6749 758.3091)" width="7.92" height="87.645"/>
	
		<rect x="436.014" y="258.042" transform="matrix(-0.1258 -0.9921 0.9921 -0.1258 195.8456 776.3127)" width="7.919" height="87.645"/>
	
		<rect x="437.568" y="272.851" transform="matrix(-0.1258 -0.9921 0.9921 -0.1258 182.9048 794.5262)" width="7.919" height="87.645"/>
	
		<rect x="439.578" y="287.072" transform="matrix(-0.1256 -0.9921 0.9921 -0.1256 170.9937 812.4914)" width="7.92" height="87.644"/>
	
		<rect x="328.158" y="300.705" transform="matrix(-0.1256 -0.9921 0.9921 -0.1256 32.0489 717.3011)" width="7.92" height="87.644"/>
	
		<rect x="441.13" y="301.882" transform="matrix(-0.1256 -0.9921 0.9921 -0.1256 158.0484 830.7032)" width="7.92" height="87.644"/>
	
		<rect x="443.139" y="316.102" transform="matrix(-0.1256 -0.9921 0.9921 -0.1256 146.2025 848.7024)" width="7.92" height="87.644"/>
	
		<rect x="445.22" y="330.839" transform="matrix(-0.1258 -0.9921 0.9921 -0.1258 133.9848 867.3945)" width="7.92" height="87.645"/>
	
		<rect x="446.707" y="345.125" transform="matrix(-0.1258 -0.9921 0.9921 -0.1258 121.4853 884.9518)" width="7.92" height="87.645"/>
	
		<rect x="531.943" y="172.58" transform="matrix(-0.1256 -0.9921 0.9921 -0.1256 388.5479 775.2484)" width="7.92" height="87.644"/>
	
		<rect x="533.495" y="187.39" transform="matrix(-0.1256 -0.9921 0.9921 -0.1256 375.6025 793.4582)" width="7.92" height="87.644"/>
	
		<rect x="535.504" y="201.611" transform="matrix(-0.1256 -0.9921 0.9921 -0.1256 363.7556 811.4585)" width="7.92" height="87.644"/>
	
		<rect x="537.584" y="216.35" transform="matrix(-0.1256 -0.9921 0.9921 -0.1256 351.4746 830.1132)" width="7.92" height="87.644"/>
	
		<rect x="539.072" y="230.634" transform="matrix(-0.1257 -0.9921 0.9921 -0.1257 338.9883 847.6712)" width="7.919" height="87.644"/>
	
		<rect x="541.08" y="244.852" transform="matrix(-0.1258 -0.9921 0.9921 -0.1258 327.2129 865.6952)" width="7.919" height="87.645"/>
	
		<rect x="542.633" y="259.664" transform="matrix(-0.1257 -0.9921 0.9921 -0.1257 314.196 883.8817)" width="7.919" height="87.644"/>
	
		<rect x="544.646" y="273.878" transform="matrix(-0.1256 -0.9921 0.9921 -0.1256 302.352 901.8761)" width="7.92" height="87.644"/>
	
		<rect x="546.2" y="288.687" transform="matrix(-0.1258 -0.9921 0.9921 -0.1258 289.4902 920.1232)" width="7.919" height="87.645"/>
	
		<rect x="548.21" y="302.906" transform="matrix(-0.1257 -0.9921 0.9921 -0.1257 277.5746 938.0906)" width="7.919" height="87.644"/>
	
		<rect x="550.285" y="317.65" transform="matrix(-0.1258 -0.9921 0.9921 -0.1258 265.3561 956.7815)" width="7.919" height="87.645"/>
	
		<rect x="551.772" y="331.937" transform="matrix(-0.1257 -0.9921 0.9921 -0.1257 252.7825 974.3032)" width="7.919" height="87.644"/>
</g>
<rect x="264.125" y="107.167" transform="matrix(-0.9925 0.1219 -0.1219 -0.9925 849.537 237.8552)" width="306.735" height="75.496"/>
</svg>
